<svg width="46" height="47" viewBox="0 0 46 47" fill="none" xmlns="http://www.w3.org/2000/svg">
<rect x="0.165039" y="0.66626" width="45.67" height="45.6684" rx="17" fill="#00B36F"/>
<path d="M31.5 23.5005C31.5 23.8763 31.3559 24.2396 31.0864 24.5027C30.8233 24.772 30.4598 24.9224 30.0839 24.9224H24.4193V30.5849C24.4193 30.9607 24.2689 31.324 23.9994 31.5871C23.7363 31.8502 23.3791 32.0005 23.0031 32.0005C22.6272 32.0005 22.2637 31.8502 22.0006 31.5871C21.7311 31.324 21.5807 30.9607 21.5807 30.5849V24.9224H15.9161C15.5402 24.9224 15.1767 24.772 14.9136 24.5027C14.6504 24.2396 14.5 23.8763 14.5 23.5005C14.5 23.1247 14.6504 22.7676 14.9136 22.4983C15.1767 22.2352 15.5402 22.0849 15.9161 22.0849H21.5807V16.4224C21.5807 16.0465 21.7311 15.6832 22.0006 15.4202C22.2637 15.1508 22.6272 15.0005 23.0031 15.0005C23.3791 15.0005 23.7363 15.1508 23.9994 15.4202C24.2689 15.6832 24.4193 16.0465 24.4193 16.4224V22.0849H30.0839C30.4598 22.0849 30.8233 22.2352 31.0864 22.4983C31.3559 22.7676 31.5 23.1247 31.5 23.5005Z" fill="white"/>
</svg>
